<svg width="20" height="20" viewBox="0 0 20 20" fill="none" xmlns="http://www.w3.org/2000/svg">
<path d="M1 1.07692C1 1.04923 1.02719 1 1.09402 1H18.5983C18.6651 1 18.6923 1.04922 18.6923 1.07692V7.53846C18.6923 7.56617 18.6651 7.61539 18.5983 7.61539H1.09402C1.02718 7.61539 1 7.56616 1 7.53846V1.07692ZM1 12.1538C1 12.1262 1.02719 12.0769 1.09402 12.0769H18.5983C18.6651 12.0769 18.6923 12.1261 18.6923 12.1538V18.6154C18.6923 18.6431 18.6651 18.6923 18.5983 18.6923H1.09402C1.02718 18.6923 1 18.6431 1 18.6154V12.1538Z" stroke="white" stroke-width="2"/>
</svg>
