<svg width="31" height="31" viewBox="0 0 31 31" fill="none" xmlns="http://www.w3.org/2000/svg">
<rect width="31" height="31" fill="#DF3C2A"/>
<path fill-rule="evenodd" clip-rule="evenodd" d="M4.09091 4C3.80158 4 3.5241 4.11588 3.31952 4.32216C3.11493 4.52843 3 4.80819 3 5.09991V20.4986C3 21.9879 3.97855 23.2462 5.32255 23.6576C5.52262 24.323 5.92608 24.9077 6.47534 25.3282C7.02459 25.7487 7.69157 25.9836 8.38105 25.9992C9.07054 26.0148 9.74729 25.8104 10.3147 25.4151C10.8821 25.0199 11.3112 24.4541 11.5407 23.7983H18.4593C18.6888 24.4541 19.1179 25.0199 19.6853 25.4151C20.2527 25.8104 20.9295 26.0148 21.6189 25.9992C22.3084 25.9836 22.9754 25.7487 23.5247 25.3282C24.0739 24.9077 24.4774 24.323 24.6775 23.6576C25.3495 23.452 25.9382 23.0339 26.3564 22.465C26.7746 21.8961 27.0003 21.2067 27 20.4986V16.099C27 15.3768 26.8589 14.6616 26.5848 13.9944C26.3107 13.3272 25.9089 12.7209 25.4024 12.2102C24.8959 11.6995 24.2946 11.2945 23.6328 11.0181C22.971 10.7417 22.2618 10.5994 21.5455 10.5994H17.1818V5.09991C17.1818 4.80819 17.0669 4.52843 16.8623 4.32216C16.6577 4.11588 16.3802 4 16.0909 4H4.09091ZM18.4593 21.5985H17.1818V12.7993H21.5455C22.4134 12.7993 23.2459 13.1469 23.8596 13.7657C24.4734 14.3845 24.8182 15.2238 24.8182 16.099V20.4986C24.8181 20.7903 24.7031 21.07 24.4985 21.2763C24.2197 20.6872 23.7737 20.1948 23.2172 19.8612C22.6607 19.5277 22.0186 19.3681 21.3721 19.4026C20.7256 19.4371 20.1038 19.6642 19.5853 20.0551C19.0668 20.4459 18.6749 20.9831 18.4593 21.5985ZM7.68327 21.9208C7.78391 21.8157 7.90428 21.732 8.03738 21.6743C8.17047 21.6167 8.31362 21.5863 8.45847 21.585C8.60332 21.5838 8.74697 21.6116 8.88104 21.6669C9.01511 21.7222 9.13691 21.8039 9.23934 21.9072C9.34177 22.0104 9.42277 22.1332 9.47762 22.2684C9.53248 22.4036 9.56008 22.5484 9.55882 22.6945C9.55756 22.8405 9.52747 22.9848 9.47029 23.119C9.41312 23.2532 9.33001 23.3746 9.22582 23.4761C9.02007 23.6764 8.7445 23.7873 8.45847 23.7848C8.17244 23.7823 7.89883 23.6666 7.69656 23.4627C7.4943 23.2587 7.37957 22.9829 7.37708 22.6945C7.3746 22.4061 7.48456 22.1282 7.68327 21.9208ZM20.4545 22.6984C20.4545 22.4067 20.5695 22.127 20.7741 21.9207C20.9787 21.7144 21.2561 21.5985 21.5455 21.5985C21.8348 21.5985 22.1123 21.7144 22.3168 21.9207C22.5214 22.127 22.6364 22.4067 22.6364 22.6984C22.6364 22.9901 22.5214 23.2699 22.3168 23.4762C22.1123 23.6825 21.8348 23.7983 21.5455 23.7983C21.2561 23.7983 20.9787 23.6825 20.7741 23.4762C20.5695 23.2699 20.4545 22.9901 20.4545 22.6984Z" fill="white"/>
</svg>
