<svg width="31" height="31" viewBox="0 0 31 31" fill="none" xmlns="http://www.w3.org/2000/svg">
<rect width="31" height="31" fill="#DF3C2A"/>
<path d="M15.5 4C15.5 4 7.7675 10.8233 3.44625 14.5187C3.30869 14.6411 3.19786 14.7917 3.12098 14.9608C3.0441 15.1299 3.00288 15.3136 3 15.5C3 15.8389 3.1317 16.1639 3.36612 16.4035C3.60054 16.6432 3.91848 16.7778 4.25 16.7778H6.75V25.7222C6.75 26.0611 6.8817 26.3861 7.11612 26.6257C7.35054 26.8654 7.66848 27 8 27H11.75C12.0815 27 12.3995 26.8654 12.6339 26.6257C12.8683 26.3861 13 26.0611 13 25.7222V20.6111H18V25.7222C18 26.0611 18.1317 26.3861 18.3661 26.6257C18.6005 26.8654 18.9185 27 19.25 27H23C23.3315 27 23.6495 26.8654 23.8839 26.6257C24.1183 26.3861 24.25 26.0611 24.25 25.7222V16.7778H26.75C27.0815 16.7778 27.3995 16.6432 27.6339 16.4035C27.8683 16.1639 28 15.8389 28 15.5C27.9983 15.31 27.9542 15.1229 27.8713 14.9529C27.7884 14.7829 27.6686 14.6344 27.5213 14.5187C23.23 10.8233 15.5 4 15.5 4Z" fill="white"/>
</svg>
