<svg width="31" height="31" viewBox="0 0 31 31" fill="none" xmlns="http://www.w3.org/2000/svg">
<rect width="31" height="31" fill="#DF3C2A"/>
<path d="M14.25 21.75H16.75V14.25H14.25V21.75ZM15.5 11.75C15.8542 11.75 16.1512 11.63 16.3912 11.39C16.6312 11.15 16.7508 10.8533 16.75 10.5C16.7492 10.1467 16.6292 9.85 16.39 9.61C16.1508 9.37 15.8542 9.25 15.5 9.25C15.1458 9.25 14.8492 9.37 14.61 9.61C14.3708 9.85 14.2508 10.1467 14.25 10.5C14.2492 10.8533 14.3692 11.1504 14.61 11.3912C14.8508 11.6321 15.1475 11.7517 15.5 11.75ZM15.5 28C13.7708 28 12.1458 27.6717 10.625 27.015C9.10416 26.3583 7.78125 25.4679 6.65625 24.3437C5.53125 23.2196 4.64083 21.8967 3.985 20.375C3.32917 18.8533 3.00083 17.2283 3 15.5C2.99917 13.7717 3.3275 12.1467 3.985 10.625C4.6425 9.10333 5.53292 7.78042 6.65625 6.65625C7.77958 5.53208 9.1025 4.64167 10.625 3.985C12.1475 3.32833 13.7725 3 15.5 3C17.2275 3 18.8525 3.32833 20.375 3.985C21.8975 4.64167 23.2204 5.53208 24.3437 6.65625C25.4671 7.78042 26.3579 9.10333 27.0162 10.625C27.6746 12.1467 28.0025 13.7717 28 15.5C27.9975 17.2283 27.6692 18.8533 27.015 20.375C26.3608 21.8967 25.4704 23.2196 24.3437 24.3437C23.2171 25.4679 21.8942 26.3587 20.375 27.0162C18.8558 27.6737 17.2308 28.0017 15.5 28Z" fill="white"/>
</svg>
