<svg width="31" height="31" viewBox="0 0 31 31" fill="none" xmlns="http://www.w3.org/2000/svg">
<rect width="31" height="31" fill="#DF3C2A"/>
<path d="M24 4C24.5523 4 25 4.44772 25 5V26C25 26.5523 24.5523 27 24 27H7C6.44771 27 6 26.5523 6 26V5C6 4.44771 6.44772 4 7 4H24ZM19.7222 11.2727C19.7222 10.7204 19.2745 10.2727 18.7222 10.2727H12.2778C11.7255 10.2727 11.2778 10.7204 11.2778 11.2727V11.3636C11.2778 11.9159 11.7255 12.3636 12.2778 12.3636H18.7222C19.2745 12.3636 19.7222 11.9159 19.7222 11.3636V11.2727ZM19.7222 15.4545C19.7222 14.9023 19.2745 14.4545 18.7222 14.4545H12.2778C11.7255 14.4545 11.2778 14.9023 11.2778 15.4545V15.5455C11.2778 16.0977 11.7255 16.5455 12.2778 16.5455H18.7222C19.2745 16.5455 19.7222 16.0977 19.7222 15.5455V15.4545ZM19.7222 19.6364C19.7222 19.0841 19.2745 18.6364 18.7222 18.6364H12.2778C11.7255 18.6364 11.2778 19.0841 11.2778 19.6364V19.7273C11.2778 20.2796 11.7255 20.7273 12.2778 20.7273H18.7222C19.2745 20.7273 19.7222 20.2796 19.7222 19.7273V19.6364Z" fill="white"/>
</svg>
