<svg width="21" height="21" viewBox="0 0 21 21" fill="none" xmlns="http://www.w3.org/2000/svg">
<path d="M3.25838 4.60365L0 1.39805L1.42107 0L4.67945 3.20559H19.9951C20.5501 3.20559 21 3.6482 21 4.19417C21 4.29038 20.9857 4.38608 20.9577 4.47824L18.546 12.3868C18.4185 12.805 18.0272 13.0914 17.5835 13.0914H5.26808V15.0685H16.3215V17.0457H4.26323C3.70826 17.0457 3.25838 16.603 3.25838 16.0571V4.60365ZM4.76566 21C3.93321 21 3.25838 20.3361 3.25838 19.5171C3.25838 18.6981 3.93321 18.0343 4.76566 18.0343C5.59811 18.0343 6.27294 18.6981 6.27294 19.5171C6.27294 20.3361 5.59811 21 4.76566 21ZM16.8239 21C15.9914 21 15.3167 20.3361 15.3167 19.5171C15.3167 18.6981 15.9914 18.0343 16.8239 18.0343C17.6564 18.0343 18.3312 18.6981 18.3312 19.5171C18.3312 20.3361 17.6564 21 16.8239 21Z" fill="#888888"/>
</svg>
