<svg width="20" height="18" viewBox="0 0 20 18" fill="none" xmlns="http://www.w3.org/2000/svg">
<path d="M19.2912 14.0801C19.7848 13.0871 20.0269 11.9941 19.9976 10.892C19.9683 9.78998 19.6683 8.7106 19.1226 7.74358C18.5769 6.77655 17.8012 5.9498 16.86 5.33199C15.9188 4.71418 14.8392 4.32316 13.7109 4.19139C13.3355 3.34462 12.7896 2.57903 12.1054 1.93945C11.4212 1.29986 10.6123 0.79914 9.72605 0.466607C8.83984 0.134073 7.89414 -0.0235895 6.94433 0.00285153C5.99453 0.0292926 5.0597 0.239306 4.19461 0.620593C3.32951 1.00188 2.55154 1.54678 1.90623 2.22337C1.26093 2.89997 0.76127 3.69467 0.436517 4.56093C0.111764 5.42719 -0.0315555 6.3476 0.0149508 7.26826C0.0614572 8.18893 0.296855 9.09134 0.707359 9.92265L0.0582536 12.0629C-0.0143218 12.3018 -0.0191746 12.5553 0.0442059 12.7967C0.107586 13.038 0.236857 13.2584 0.418418 13.4345C0.599978 13.6106 0.827117 13.736 1.07594 13.7975C1.32476 13.859 1.58606 13.8543 1.83235 13.7839L4.0386 13.1542C4.74702 13.4844 5.50653 13.6994 6.28681 13.7908C6.66589 14.6525 7.22116 15.4306 7.91904 16.0782C8.61691 16.7257 9.44291 17.2293 10.3471 17.5584C11.2513 17.8875 12.2149 18.0353 13.1796 17.9929C14.1443 17.9505 15.0902 17.7188 15.96 17.3117L18.1662 17.9414C18.4124 18.0117 18.6736 18.0164 18.9223 17.9549C19.171 17.8935 19.3981 17.7682 19.5796 17.5922C19.7612 17.4161 19.8904 17.1959 19.9539 16.9547C20.0174 16.7135 20.0127 16.4601 19.9403 16.2212L19.2912 14.0801ZM17.8403 14.2074L18.5707 16.6127L16.0921 15.9051C15.9131 15.8548 15.7208 15.8743 15.5564 15.9596C14.2411 16.641 12.7035 16.797 11.2713 16.3944C9.83907 15.9919 8.6256 15.0626 7.88948 13.8047C8.86749 13.7057 9.81386 13.4116 10.6692 12.9411C11.5246 12.4705 12.2704 11.8335 12.86 11.0701C13.4496 10.3067 13.8703 9.43335 14.0955 8.50481C14.3207 7.57626 14.3457 6.61258 14.1689 5.67423C15.0211 5.86908 15.8156 6.25127 16.4913 6.79129C17.167 7.33131 17.7058 8.01473 18.066 8.7888C18.4263 9.56287 18.5983 10.4069 18.569 11.2557C18.5396 12.1045 18.3095 12.9354 17.8966 13.6843C17.8077 13.8447 17.7875 14.0327 17.8403 14.2074Z" fill="#888888"/>
</svg>
