<svg width="24" height="20" viewBox="0 0 24 20" fill="none" xmlns="http://www.w3.org/2000/svg">
<path d="M5.9875 0.0946534C7.0491 -0.0727972 8.13776 -0.0175594 9.17323 0.256295C10.2087 0.53015 11.1646 1.01564 11.9704 1.67698L12.0148 1.71362L12.0556 1.68031C12.8247 1.05548 13.7289 0.589666 14.7078 0.313938C15.6868 0.0382112 16.718 -0.0410887 17.7326 0.0813288L18.0277 0.121303C19.3067 0.325739 20.5022 0.846569 21.4875 1.62864C22.4729 2.41071 23.2114 3.42491 23.6249 4.56384C24.0385 5.70276 24.1116 6.92402 23.8366 8.09829C23.5616 9.27255 22.9486 10.3561 22.0627 11.2342L21.8468 11.4396L21.7892 11.4852L12.8532 19.6788C12.647 19.8678 12.3738 19.9811 12.0842 19.9978C11.7947 20.0146 11.5083 19.9336 11.2783 19.7699L11.1656 19.6788L2.17801 11.4374C1.2259 10.5798 0.54878 9.49496 0.221638 8.30304C-0.105504 7.11112 -0.0699011 5.85863 0.324504 4.68429C0.71891 3.50995 1.45673 2.45959 2.45624 1.64952C3.45575 0.83945 4.67796 0.301295 5.9875 0.0946534Z" fill="#888888"/>
</svg>
