<svg width="31" height="31" viewBox="0 0 31 31" fill="none" xmlns="http://www.w3.org/2000/svg">
<rect width="31" height="31" fill="#DF3C2A"/>
<path d="M8.43807 8C7.52624 8 6.65175 8.35119 6.00699 8.97631C5.36222 9.60143 5 10.4493 5 11.3333V12H27V11.3333C27 10.4493 26.6378 9.60143 25.993 8.97631C25.3482 8.35119 24.4738 8 23.5619 8H8.43807ZM5 20.6667V13.3333H27V20.6667C27 21.5507 26.6378 22.3986 25.993 23.0237C25.3482 23.6488 24.4738 24 23.5619 24H8.43899C7.52716 24 6.65267 23.6488 6.00791 23.0237C5.36314 22.3986 5.00092 21.5507 5.00092 20.6667M19.8946 18.2222C19.7123 18.2222 19.5374 18.2925 19.4084 18.4175C19.2795 18.5425 19.207 18.7121 19.207 18.8889C19.207 19.0657 19.2795 19.2353 19.4084 19.3603C19.5374 19.4853 19.7123 19.5556 19.8946 19.5556H23.1035C23.2859 19.5556 23.4608 19.4853 23.5897 19.3603C23.7187 19.2353 23.7911 19.0657 23.7911 18.8889C23.7911 18.7121 23.7187 18.5425 23.5897 18.4175C23.4608 18.2925 23.2859 18.2222 23.1035 18.2222H19.8946Z" fill="white"/>
</svg>
